<svg xmlns="http://www.w3.org/2000/svg" version="1.1" xmlns:xlink="http://www.w3.org/1999/xlink" xmlns:svgjs="http://svgjs.dev/svgjs" width="2000" height="717" viewBox="0 0 2000 717"><g transform="matrix(1,0,0,1,-1.2121212121212466,0.04824544312026546)"><svg viewBox="0 0 396 142" data-background-color="#ffffff" preserveAspectRatio="xMidYMid meet" height="717" width="2000" xmlns="http://www.w3.org/2000/svg" xmlns:xlink="http://www.w3.org/1999/xlink"><g id="tight-bounds" transform="matrix(1,0,0,1,0.2400000000000091,-0.009554885527307988)"><svg viewBox="0 0 395.52 142.01905084823875" height="142.01905084823875" width="395.52"><g><svg viewBox="0 0 685.9037096981842 246.28689781710662" height="142.01905084823875" width="395.52"><g transform="matrix(1,0,0,1,290.38370969818425,57.71129435614766)"><svg viewBox="0 0 395.52 130.8643091048113" height="130.8643091048113" width="395.52"><g id="textblocktransform"><svg viewBox="0 0 395.52 130.8643091048113" height="130.8643091048113" width="395.52" id="textblock"><g><svg viewBox="0 0 395.52 93.39537242472265" height="93.39537242472265" width="395.52"><g transform="matrix(1,0,0,1,0,0)"><svg width="395.52" viewBox="0.4 -36.75 157.73 37.25" height="93.39537242472265" data-palette-color="#111111"><path d="M7.2 0L7.2 0 7.2-34.4Q7.2-34.4 7.3-34.48 7.4-34.55 8-34.55L8-34.55 10.4-34.55Q11.05-34.55 11.15-34.48 11.25-34.4 11.25-34.4L11.25-34.4 11.25-0.8Q11.25-0.4 11.08-0.25 10.9-0.1 10.05-0.05 9.2 0 7.2 0ZM17.4-31.2L0.4-31.2 0.4-34.2Q0.4-35 1.25-35L1.25-35 18.25-35 18.25-32Q18.25-31.55 18.05-31.38 17.85-31.2 17.4-31.2L17.4-31.2ZM28.35 0.5L28.35 0.5Q25.35 0.5 23.75-0.4 22.15-1.3 21.52-3.15 20.9-5 20.9-7.8L20.9-7.8 20.9-24.2Q20.9-24.6 21.05-24.75 21.2-24.9 22.07-24.95 22.95-25 25.05-25L25.05-25 25.05-7.45Q25.05-5.85 25.32-4.88 25.6-3.9 26.32-3.48 27.05-3.05 28.4-3.05L28.4-3.05Q29.1-3.05 30.05-3.25 31-3.45 31.8-3.95L31.8-3.95 31.8-24.2Q31.8-24.6 31.97-24.75 32.15-24.9 32.97-24.95 33.8-25 35.85-25L35.85-25 35.85-1.3Q34.4-0.5 32.4 0 30.4 0.5 28.35 0.5ZM40.35 0L40.35 0 40.35-23.8Q41.35-24.25 42.7-24.63 44.05-25 45.5-25.25 46.95-25.5 48.3-25.5L48.3-25.5Q50.9-25.5 52.45-24.83 54-24.15 54.65-22.7 55.3-21.25 55.3-18.8L55.3-18.8 55.3-0.8Q55.3-0.4 55.1-0.25 54.9-0.1 54.05-0.05 53.2 0 51.1 0L51.1 0 51.1-17.6Q51.1-19.95 50.55-20.95 50-21.95 48.15-21.95L48.15-21.95Q47.3-21.95 46.25-21.75 45.2-21.55 44.4-21.05L44.4-21.05 44.4-0.8Q44.4-0.4 44.22-0.25 44.05-0.1 43.2-0.05 42.35 0 40.35 0ZM60.44 0L60.44 0 60.44-23.8Q61.44-24.25 62.79-24.63 64.14-25 65.59-25.25 67.04-25.5 68.39-25.5L68.39-25.5Q70.99-25.5 72.54-24.83 74.09-24.15 74.74-22.7 75.39-21.25 75.39-18.8L75.39-18.8 75.39-0.8Q75.39-0.4 75.19-0.25 74.99-0.1 74.14-0.05 73.29 0 71.19 0L71.19 0 71.19-17.6Q71.19-19.95 70.64-20.95 70.09-21.95 68.24-21.95L68.24-21.95Q67.39-21.95 66.34-21.75 65.29-21.55 64.49-21.05L64.49-21.05 64.49-0.8Q64.49-0.4 64.32-0.25 64.14-0.1 63.29-0.05 62.44 0 60.44 0ZM87.24 0.5L87.24 0.5Q85.54 0.5 84.07 0.03 82.59-0.45 81.52-1.7 80.44-2.95 79.87-5.25 79.29-7.55 79.29-11.2L79.29-11.2Q79.29-15.9 80.04-18.75 80.79-21.6 82.04-23.05 83.29-24.5 84.89-25 86.49-25.5 88.14-25.5L88.14-25.5Q91.29-25.5 92.89-23.5 94.49-21.5 94.49-17.45L94.49-17.45Q94.49-15.8 94.37-14.05 94.24-12.3 93.89-10.95L93.89-10.95Q92.19-10.6 90.09-10.45 87.99-10.3 86.09-10.23 84.19-10.15 82.97-10.15 81.74-10.15 81.74-10.15L81.74-10.15 81.79-13.45Q81.79-13.45 82.74-13.43 83.69-13.4 85.07-13.43 86.44-13.45 87.87-13.58 89.29-13.7 90.29-14L90.29-14Q90.44-14.7 90.49-15.5 90.54-16.3 90.54-17L90.54-17Q90.49-19.7 89.92-20.83 89.34-21.95 87.69-21.95L87.69-21.95Q86.84-21.95 86.07-21.48 85.29-21 84.69-19.83 84.09-18.65 83.77-16.6 83.44-14.55 83.44-11.35L83.44-11.35Q83.44-9 83.72-7.45 83.99-5.9 84.57-5.05 85.14-4.2 86.02-3.83 86.89-3.45 88.14-3.45L88.14-3.45Q89.64-3.45 91.12-3.85 92.59-4.25 93.79-5L93.79-5Q94.04-4.4 94.12-3.63 94.19-2.85 94.19-2.25L94.19-2.25Q94.19-1.5 93.24-0.85 92.29-0.2 90.72 0.15 89.14 0.5 87.24 0.5ZM98.09 0L98.09 0 98.09-34.9Q98.09-35.85 98.41-36.23 98.74-36.6 99.64-36.68 100.54-36.75 102.14-36.75L102.14-36.75 102.14-0.8Q102.14-0.4 101.96-0.25 101.79-0.1 100.96-0.05 100.14 0 98.09 0ZM123.64 0L120.64 0 114.89-13.75Q114.59-14.55 114.06-16.03 113.54-17.5 112.94-19.35 112.34-21.2 111.71-23.08 111.09-24.95 110.56-26.55 110.04-28.15 109.74-29.13 109.44-30.1 109.44-30.1L109.44-30.1 107.14-32.6 107.44-35 110.54-35 116.14-21.5Q116.49-20.65 117.01-19.13 117.54-17.6 118.14-15.78 118.74-13.95 119.34-12.13 119.94-10.3 120.44-8.75 120.94-7.2 121.26-6.28 121.59-5.35 121.59-5.35L121.59-5.35 124.04-2.4 123.64 0ZM106.59 0L106.59 0 106.59-34.2Q106.59-35 107.44-35L107.44-35 110.64-34.2 110.09-28.35Q110.19-27.65 110.26-26.4 110.34-25.15 110.39-23.63 110.44-22.1 110.49-20.45 110.54-18.8 110.59-17.3 110.64-15.8 110.64-14.65 110.64-13.5 110.64-12.95L110.64-12.95 110.64-0.8Q110.64-0.4 110.46-0.25 110.29-0.1 109.46-0.05 108.64 0 106.59 0ZM123.64 0L123.64 0 120.44-0.8 120.89-7.5Q120.79-8.25 120.74-9.47 120.69-10.7 120.64-12.18 120.59-13.65 120.54-15.2 120.49-16.75 120.46-18.18 120.44-19.6 120.44-20.7 120.44-21.8 120.44-22.4L120.44-22.4 120.44-34.2Q120.44-34.6 120.61-34.75 120.79-34.9 121.64-34.95 122.49-35 124.49-35L124.49-35 124.49-0.8Q124.49 0 123.64 0ZM136.08 0.5L136.08 0.5Q134.38 0.5 132.91 0.03 131.43-0.45 130.36-1.7 129.28-2.95 128.71-5.25 128.13-7.55 128.13-11.2L128.13-11.2Q128.13-15.9 128.88-18.75 129.63-21.6 130.88-23.05 132.13-24.5 133.73-25 135.33-25.5 136.98-25.5L136.98-25.5Q140.13-25.5 141.73-23.5 143.33-21.5 143.33-17.45L143.33-17.45Q143.33-15.8 143.21-14.05 143.08-12.3 142.73-10.95L142.73-10.95Q141.03-10.6 138.93-10.45 136.83-10.3 134.93-10.23 133.03-10.15 131.81-10.15 130.58-10.15 130.58-10.15L130.58-10.15 130.63-13.45Q130.63-13.45 131.58-13.43 132.53-13.4 133.91-13.43 135.28-13.45 136.71-13.58 138.13-13.7 139.13-14L139.13-14Q139.28-14.7 139.33-15.5 139.38-16.3 139.38-17L139.38-17Q139.33-19.7 138.76-20.83 138.18-21.95 136.53-21.95L136.53-21.95Q135.68-21.95 134.91-21.48 134.13-21 133.53-19.83 132.93-18.65 132.61-16.6 132.28-14.55 132.28-11.35L132.28-11.35Q132.28-9 132.56-7.45 132.83-5.9 133.41-5.05 133.98-4.2 134.86-3.83 135.73-3.45 136.98-3.45L136.98-3.45Q138.48-3.45 139.96-3.85 141.43-4.25 142.63-5L142.63-5Q142.88-4.4 142.96-3.63 143.03-2.85 143.03-2.25L143.03-2.25Q143.03-1.5 142.08-0.85 141.13-0.2 139.56 0.15 137.98 0.5 136.08 0.5ZM153.73 0.5L153.73 0.5Q151.63 0.5 150.61-0.43 149.58-1.35 149.28-3.03 148.98-4.7 148.98-6.95L148.98-6.95 148.98-21.5 145.58-21.5Q145.58-23.1 145.61-23.83 145.63-24.55 145.83-24.78 146.03-25 146.43-25L146.43-25 148.98-25 148.98-32.6Q148.98-33.35 149.31-33.63 149.63-33.9 150.51-33.95 151.38-34 153.03-34L153.03-34 153.03-25 158.13-25Q158.13-23.45 158.11-22.7 158.08-21.95 157.91-21.73 157.73-21.5 157.33-21.5L157.33-21.5 153.03-21.5 153.03-6.95Q153.03-5.9 153.11-4.98 153.18-4.05 153.56-3.53 153.93-3 154.83-3L154.83-3Q155.68-3 156.33-3.18 156.98-3.35 157.73-3.75L157.73-3.75Q157.83-3.35 157.93-2.85 158.03-2.35 158.03-1.7L158.03-1.7Q158.03-0.8 157.36-0.33 156.68 0.15 155.71 0.33 154.73 0.5 153.73 0.5Z" opacity="1" transform="matrix(1,0,0,1,0,0)" fill="#000000" class="wordmark-text-0" data-fill-palette-color="primary" id="text-0"></path></svg></g></svg></g><g transform="matrix(1,0,0,1,0,115.44377836526148)"><svg viewBox="0 0 353.19935999999996 15.420530739549838" height="15.420530739549838" width="353.19935999999996"><g transform="matrix(1,0,0,1,0,0)"><svg width="353.19935999999996" viewBox="1.25 -33.4 995.1 43.449999999999996" height="15.420530739549838" data-palette-color="#111111"><path d="M12.55 0.5Q6.45 0.5 3.85-3.7 1.25-7.9 1.25-16.57 1.25-25.25 3.93-29.25 6.6-33.25 12.63-33.25 18.65-33.25 21.2-29.3 23.75-25.35 23.75-16.48 23.75-7.6 21.2-3.55 18.65 0.5 12.55 0.5ZM12.45-4.2Q15.95-4.2 17.2-6.78 18.45-9.35 18.45-16.55 18.45-23.75 17.23-26.15 16-28.55 12.63-28.55 9.25-28.55 7.9-25.95 6.55-23.35 6.55-16.68 6.55-10 7.75-7.1 8.95-4.2 12.45-4.2ZM33 9.6L27.85 9.6 27.85-19.45 27.55-23.75 32.55-24.1 32.85-21.9Q36.2-24.15 38.8-24.15L38.8-24.15Q43.85-24.15 46.22-21.18 48.6-18.2 48.6-11.9 48.6-5.6 45.7-2.53 42.8 0.55 37.45 0.55L37.45 0.55Q35.65 0.55 33-0.5L33-0.5 33 9.6ZM38.6-19.35L38.6-19.35Q36.3-19.35 33-17.15L33-17.15 33-5.25Q35.4-4.2 37.35-4.2L37.35-4.2Q43.05-4.2 43.05-11.8 43.05-19.4 38.6-19.35ZM52.45-11.85Q52.45-17.9 55.15-21.03 57.85-24.15 62.65-24.15 67.45-24.15 70.07-21.33 72.7-18.5 72.8-13.05L72.8-13.05 72.59-9.35 58-9.35Q58.45-3.95 63.4-3.95L63.4-3.95Q66.84-3.95 70.7-5.2L70.7-5.2 71.75-0.85Q70.15-0.3 67.59 0.13 65.05 0.55 63.4 0.55L63.4 0.55Q52.45 0.55 52.45-11.85L52.45-11.85ZM62.85-19.5L62.85-19.5Q60.5-19.5 59.32-18.13 58.15-16.75 58-13.55L58-13.55 67.25-13.55Q67.25-19.5 62.85-19.5ZM77.79-23.75L82.79-23.75 82.89-22.3Q86.94-24.15 89.24-24.15L89.24-24.15Q93.29-24.15 95.22-21.78 97.14-19.4 97.14-14.35L97.14-14.35 97.14 0 91.99 0 91.99-14.2Q91.99-16.6 91.14-17.95 90.29-19.3 88.49-19.3 86.69-19.3 82.94-17.55L82.94-17.55 82.94 0 77.79 0 77.79-23.75ZM127.09-24L127.09-24Q127.09-33.25 138.19-33.25L138.19-33.25Q142.09-33.25 147.09-31.5L147.09-31.5 145.94-26.95Q140.84-28.55 137.91-28.58 134.99-28.6 133.69-27.6 132.39-26.6 132.39-24.1L132.39-24.1Q132.39-22.4 133.84-21.23 135.29-20.05 138.74-19.15L138.74-19.15Q143.99-17.75 145.94-15.55 147.89-13.35 147.89-9L147.89-9Q147.89 0.45 136.59 0.45L136.59 0.45Q132.84 0.45 127.14-1.15L127.14-1.15 128.19-5.9Q128.19-5.85 129.74-5.45L129.74-5.45Q134.59-4.2 137.26-4.2 139.94-4.2 141.26-5.55 142.59-6.9 142.59-8.95 142.59-11 141.46-12.1 140.34-13.2 137.34-14.05L137.34-14.05Q131.94-15.55 129.51-17.75 127.09-19.95 127.09-24ZM154.64-21.13Q157.19-24.15 162.49-24.15 167.79-24.15 170.34-21.13 172.89-18.1 172.89-11.8 172.89-5.5 170.34-2.43 167.79 0.65 162.49 0.65 157.19 0.65 154.64-2.43 152.09-5.5 152.09-11.8 152.09-18.1 154.64-21.13ZM158.66-17.55Q157.64-15.8 157.64-11.8 157.64-7.8 158.69-6 159.74-4.2 162.49-4.2 165.24-4.2 166.29-6 167.34-7.8 167.34-11.8 167.34-15.8 166.31-17.55 165.29-19.3 162.49-19.3 159.69-19.3 158.66-17.55ZM196.98 0L191.98 0 191.88-1.75Q187.88 0.5 185.38 0.5L185.38 0.5Q181.33 0.5 179.48-1.83 177.63-4.15 177.63-9.25L177.63-9.25 177.63-23.75 182.78-23.75 182.78-9.55Q182.78-4.4 186.13-4.4L186.13-4.4Q188.78-4.4 191.83-6.45L191.83-6.45 191.83-23.75 196.98-23.75 196.98 0ZM207.88-19.15L204.03-19.15 204.03-23.75 213.03-23.75 213.13-21.35Q214.73-22.25 217.31-23.08 219.88-23.9 222.08-24.15L222.08-24.15 222.08-19.15Q220.13-18.95 217.43-18.1 214.73-17.25 213.13-16.35L213.13-16.35 213.13-4.5 220.43-4.5 220.43 0 204.03 0 204.03-4.6 207.88-4.6 207.88-19.15ZM246.53-23.25L246.53-23.25 245.78-18.45Q242.48-19.35 239.38-19.35 236.28-19.35 234.88-17.63 233.48-15.9 233.48-12.1 233.48-8.3 234.68-6.28 235.88-4.25 239.23-4.25 242.58-4.25 245.78-5.15L245.78-5.15 246.53-0.35Q243.03 0.65 239.08 0.65L239.08 0.65Q227.93 0.65 227.93-11.8 227.93-24.25 239.03-24.25L239.03-24.25Q243.18-24.25 246.53-23.25ZM252.43-11.85Q252.43-17.9 255.13-21.03 257.83-24.15 262.63-24.15 267.43-24.15 270.05-21.33 272.68-18.5 272.78-13.05L272.78-13.05 272.58-9.35 257.98-9.35Q258.43-3.95 263.38-3.95L263.38-3.95Q266.83-3.95 270.68-5.2L270.68-5.2 271.73-0.85Q270.13-0.3 267.58 0.13 265.03 0.55 263.38 0.55L263.38 0.55Q252.43 0.55 252.43-11.85L252.43-11.85ZM262.83-19.5L262.83-19.5Q260.48-19.5 259.3-18.13 258.13-16.75 257.98-13.55L257.98-13.55 267.23-13.55Q267.23-19.5 262.83-19.5ZM321.22 0L303.57 0 303.57-4.65 310.02-4.65 310.02-28.1 303.57-28.1 303.57-32.75 321.22-32.75 321.22-28.1 315.22-28.1 315.22-4.65 321.22-4.65 321.22 0ZM327.77-23.75L332.77-23.75 332.87-22.3Q336.92-24.15 339.22-24.15L339.22-24.15Q343.27-24.15 345.19-21.78 347.12-19.4 347.12-14.35L347.12-14.35 347.12 0 341.97 0 341.97-14.2Q341.97-16.6 341.12-17.95 340.27-19.3 338.47-19.3 336.67-19.3 332.92-17.55L332.92-17.55 332.92 0 327.77 0 327.77-23.75ZM356.97-9.1L356.97-19.15 353.17-19.15 353.17-23.75 356.97-23.75 356.97-29.45 362.12-29.95 362.12-23.75 371.02-23.75 371.02-19.15 362.12-19.15 362.12-9.1Q362.12-6.35 362.67-5.25L362.67-5.25Q363.27-4.15 365.27-4.15 367.27-4.15 370.57-4.95L370.57-4.95 371.42-0.45Q367.62 0.55 364.92 0.55L364.92 0.55Q360.12 0.55 358.54-1.6 356.97-3.75 356.97-9.1L356.97-9.1ZM377.41-11.85Q377.41-17.9 380.11-21.03 382.81-24.15 387.61-24.15 392.41-24.15 395.04-21.33 397.66-18.5 397.76-13.05L397.76-13.05 397.56-9.35 382.96-9.35Q383.41-3.95 388.36-3.95L388.36-3.95Q391.81-3.95 395.66-5.2L395.66-5.2 396.71-0.85Q395.11-0.3 392.56 0.13 390.01 0.55 388.36 0.55L388.36 0.55Q377.41 0.55 377.41-11.85L377.41-11.85ZM387.81-19.5L387.81-19.5Q385.46-19.5 384.29-18.13 383.11-16.75 382.96-13.55L382.96-13.55 392.21-13.55Q392.21-19.5 387.81-19.5ZM422.76-23.9L422.76-5.75 422.91 1.15Q422.91 5.45 420.01 7.75 417.11 10.05 412.16 10.05 407.21 10.05 402.56 8.4L402.56 8.4 403.81 3.8Q408.31 5.3 411.26 5.3 414.21 5.3 415.99 4.28 417.76 3.25 417.76 1.2L417.76 1.2Q417.76 0.8 417.69-0.38 417.61-1.55 417.61-2.2L417.61-2.2Q414.41 0.05 411.41 0.05L411.41 0.05Q406.81 0.05 404.41-2.8 402.01-5.65 402.01-11.88 402.01-18.1 404.74-21.08 407.46-24.05 412.21-24.05L412.21-24.05Q413.26-24.05 414.89-23.55 416.51-23.05 417.61-22.45L417.61-22.45 417.71-23.9 422.76-23.9ZM411.76-4.7L411.76-4.7Q414.31-4.7 417.61-7.2L417.61-7.2 417.61-17.5Q414.76-19.3 412.36-19.3L412.36-19.3Q407.56-19.3 407.56-12 407.56-4.7 411.76-4.7ZM432.86-19.15L429.01-19.15 429.01-23.75 438.01-23.75 438.11-21.35Q439.71-22.25 442.28-23.08 444.86-23.9 447.06-24.15L447.06-24.15 447.06-19.15Q445.11-18.95 442.41-18.1 439.71-17.25 438.11-16.35L438.11-16.35 438.11-4.5 445.41-4.5 445.41 0 429.01 0 429.01-4.6 432.86-4.6 432.86-19.15ZM460.76-4.3L460.76-4.3Q462.16-4.3 463.86-4.95 465.56-5.6 466.56-6.4L466.56-6.4 466.56-9.9Q463.56-10.15 461.66-10.15L461.66-10.15Q457.51-10.15 457.51-7.05L457.51-7.05Q457.51-4.3 460.76-4.3ZM459.96 0.55L459.96 0.55Q451.96 0.55 451.96-7.05L451.96-7.05Q451.96-11.1 454.53-12.73 457.11-14.35 461.66-14.35L461.66-14.35Q463.81-14.35 466.56-14.1L466.56-14.1Q466.56-17.1 465.71-18.2 464.86-19.3 462.76-19.3 460.66-19.3 457.86-18.8 455.06-18.3 453.56-17.8L453.56-17.8 452.61-22.55Q457.86-24.15 462.86-24.15 467.86-24.15 469.78-21.95 471.71-19.75 471.71-14.5L471.71-14.5 471.71-4.35 472.26 0.05 467.11 0.55 466.61-1.75Q462.41 0.55 459.96 0.55ZM481.95-9.1L481.95-19.15 478.15-19.15 478.15-23.75 481.95-23.75 481.95-29.45 487.1-29.95 487.1-23.75 496-23.75 496-19.15 487.1-19.15 487.1-9.1Q487.1-6.35 487.65-5.25L487.65-5.25Q488.25-4.15 490.25-4.15 492.25-4.15 495.55-4.95L495.55-4.95 496.4-0.45Q492.6 0.55 489.9 0.55L489.9 0.55Q485.1 0.55 483.53-1.6 481.95-3.75 481.95-9.1L481.95-9.1ZM502.4-11.85Q502.4-17.9 505.1-21.03 507.8-24.15 512.6-24.15 517.4-24.15 520.03-21.33 522.65-18.5 522.75-13.05L522.75-13.05 522.55-9.35 507.95-9.35Q508.4-3.95 513.35-3.95L513.35-3.95Q516.8-3.95 520.65-5.2L520.65-5.2 521.7-0.85Q520.1-0.3 517.55 0.13 515 0.55 513.35 0.55L513.35 0.55Q502.4 0.55 502.4-11.85L502.4-11.85ZM512.8-19.5L512.8-19.5Q510.45-19.5 509.28-18.13 508.1-16.75 507.95-13.55L507.95-13.55 517.2-13.55Q517.2-19.5 512.8-19.5ZM542.65-33.35L547.75-33.35 547.75-4.15 548.25 0 543.2 0.5 542.75-1.8Q539.5 0.55 536.4 0.55L536.4 0.55Q531.75 0.55 529.4-2.18 527.05-4.9 527.05-11.4 527.05-17.9 529.9-21.03 532.75-24.15 537.3-24.15L537.3-24.15Q539.95-24.15 542.65-23L542.65-23 542.65-33.35ZM536.75-4.25L536.75-4.25Q539.4-4.25 542.65-6.95L542.65-6.95 542.65-18.1Q540.05-19.35 537.55-19.35L537.55-19.35Q532.6-19.35 532.6-11.4L532.6-11.4Q532.6-4.25 536.75-4.25ZM597.24-5.35L597.24-5.35 598.14-1Q593.04 0.5 589.57 0.5 586.09 0.5 583.97-0.3 581.84-1.1 580.24-3L580.24-3Q576.94-6.85 576.94-16.7L576.94-16.7Q576.94-33.25 589.04-33.25L589.04-33.25Q593.24-33.25 597.49-31.8L597.49-31.8 596.39-27.55Q592.49-28.6 589.12-28.6 585.74-28.6 583.99-26 582.24-23.4 582.24-16.57 582.24-9.75 583.67-6.93 585.09-4.1 588.97-4.1 592.84-4.1 597.24-5.35ZM610.34-28.8L604.89-28.75 604.84-33.3 615.49-33.35 615.49-4.5 621.09-4.5 621.09 0 604.69 0 604.69-4.5 610.34-4.5 610.34-28.8ZM629.59-21.13Q632.14-24.15 637.44-24.15 642.74-24.15 645.29-21.13 647.84-18.1 647.84-11.8 647.84-5.5 645.29-2.43 642.74 0.65 637.44 0.65 632.14 0.65 629.59-2.43 627.04-5.5 627.04-11.8 627.04-18.1 629.59-21.13ZM633.61-17.55Q632.59-15.8 632.59-11.8 632.59-7.8 633.64-6 634.69-4.2 637.44-4.2 640.19-4.2 641.24-6 642.29-7.8 642.29-11.8 642.29-15.8 641.26-17.55 640.24-19.3 637.44-19.3 634.64-19.3 633.61-17.55ZM671.93 0L666.93 0 666.83-1.75Q662.83 0.5 660.33 0.5L660.33 0.5Q656.28 0.5 654.43-1.83 652.58-4.15 652.58-9.25L652.58-9.25 652.58-23.75 657.73-23.75 657.73-9.55Q657.73-4.4 661.08-4.4L661.08-4.4Q663.73-4.4 666.78-6.45L666.78-6.45 666.78-23.75 671.93-23.75 671.93 0ZM692.63-33.35L697.73-33.35 697.73-4.15 698.23 0 693.18 0.5 692.73-1.8Q689.48 0.55 686.38 0.55L686.38 0.55Q681.73 0.55 679.38-2.18 677.03-4.9 677.03-11.4 677.03-17.9 679.88-21.03 682.73-24.15 687.28-24.15L687.28-24.15Q689.93-24.15 692.63-23L692.63-23 692.63-33.35ZM686.73-4.25L686.73-4.25Q689.38-4.25 692.63-6.95L692.63-6.95 692.63-18.1Q690.03-19.35 687.53-19.35L687.53-19.35Q682.58-19.35 682.58-11.4L682.58-11.4Q682.58-4.25 686.73-4.25ZM747.23 0L727.93 0 727.93-32.75 747.08-32.75 747.08-28.05 733.13-28.05 733.13-18.95 745.73-18.95 745.73-14.45 733.13-14.45 733.13-4.7 747.23-4.7 747.23 0ZM752.72-23.75L757.72-23.75 757.82-22.3Q761.87-24.15 764.17-24.15L764.17-24.15Q768.22-24.15 770.15-21.78 772.07-19.4 772.07-14.35L772.07-14.35 772.07 0 766.92 0 766.92-14.2Q766.92-16.6 766.07-17.95 765.22-19.3 763.42-19.3 761.62-19.3 757.87-17.55L757.87-17.55 757.87 0 752.72 0 752.72-23.75ZM783.07 0L776.57-23.75 782.07-23.75 787.12-4.55 788.02-4.55 792.87-23.75 798.32-23.75 791.97 0 783.07 0ZM810.62-19.05L805.07-19.05 805.07-23.65 815.77-23.65 815.77-4.6 821.32-4.6 821.32 0 804.67 0 804.67-4.6 810.62-4.6 810.62-19.05ZM810.77-28.03Q809.82-29 809.82-30.3 809.82-31.6 810.72-32.5L810.72-32.5Q811.62-33.4 812.92-33.4 814.22-33.4 815.12-32.52 816.02-31.65 816.02-30.3 816.02-28.95 815.12-28 814.22-27.05 812.97-27.05 811.72-27.05 810.77-28.03ZM832.82-19.15L828.97-19.15 828.97-23.75 837.97-23.75 838.07-21.35Q839.67-22.25 842.24-23.08 844.82-23.9 847.02-24.15L847.02-24.15 847.02-19.15Q845.07-18.95 842.37-18.1 839.67-17.25 838.07-16.35L838.07-16.35 838.07-4.5 845.37-4.5 845.37 0 828.97 0 828.97-4.6 832.82-4.6 832.82-19.15ZM854.56-21.13Q857.11-24.15 862.41-24.15 867.71-24.15 870.26-21.13 872.81-18.1 872.81-11.8 872.81-5.5 870.26-2.43 867.71 0.65 862.41 0.65 857.11 0.65 854.56-2.43 852.01-5.5 852.01-11.8 852.01-18.1 854.56-21.13ZM858.59-17.55Q857.56-15.8 857.56-11.8 857.56-7.8 858.61-6 859.66-4.2 862.41-4.2 865.16-4.2 866.21-6 867.26-7.8 867.26-11.8 867.26-15.8 866.24-17.55 865.21-19.3 862.41-19.3 859.61-19.3 858.59-17.55ZM877.71-23.75L882.71-23.75 882.81-22.3Q886.86-24.15 889.16-24.15L889.16-24.15Q893.21-24.15 895.14-21.78 897.06-19.4 897.06-14.35L897.06-14.35 897.06 0 891.91 0 891.91-14.2Q891.91-16.6 891.06-17.95 890.21-19.3 888.41-19.3 886.61-19.3 882.86-17.55L882.86-17.55 882.86 0 877.71 0 877.71-23.75ZM901.06-23.75L905.96-23.75 906.11-22.4Q908.01-24.15 909.81-24.15L909.81-24.15Q912.36-24.15 913.66-22.25L913.66-22.25Q916.26-24.15 918.26-24.15L918.26-24.15Q921.26-24.15 922.53-22.4 923.81-20.65 923.81-15.9L923.81-15.9 923.81 0 918.71 0 918.71-13.7Q918.71-18.3 917.91-19L917.91-19Q917.51-19.4 916.76-19.4 916.01-19.4 914.86-18.4L914.86-18.4Q915.11-17.25 915.11-13.7L915.11-13.7 915.11-8.15 910.06-8.15 910.06-13.7Q910.06-18.25 909.51-19L909.51-19Q909.21-19.4 908.48-19.4 907.76-19.4 906.31-18.3L906.31-18.3 906.31 0 901.06 0 901.06-23.75ZM927.36-11.85Q927.36-17.9 930.06-21.03 932.76-24.15 937.56-24.15 942.36-24.15 944.98-21.33 947.61-18.5 947.71-13.05L947.71-13.05 947.51-9.35 932.91-9.35Q933.36-3.95 938.31-3.95L938.31-3.95Q941.76-3.95 945.61-5.2L945.61-5.2 946.66-0.85Q945.06-0.3 942.51 0.13 939.96 0.55 938.31 0.55L938.31 0.55Q927.36 0.55 927.36-11.85L927.36-11.85ZM937.76-19.5L937.76-19.5Q935.41-19.5 934.23-18.13 933.06-16.75 932.91-13.55L932.91-13.55 942.16-13.55Q942.16-19.5 937.76-19.5ZM952.7-23.75L957.7-23.75 957.8-22.3Q961.85-24.15 964.15-24.15L964.15-24.15Q968.2-24.15 970.13-21.78 972.05-19.4 972.05-14.35L972.05-14.35 972.05 0 966.9 0 966.9-14.2Q966.9-16.6 966.05-17.95 965.2-19.3 963.4-19.3 961.6-19.3 957.85-17.55L957.85-17.55 957.85 0 952.7 0 952.7-23.75ZM981.9-9.1L981.9-19.15 978.1-19.15 978.1-23.75 981.9-23.75 981.9-29.45 987.05-29.95 987.05-23.75 995.95-23.75 995.95-19.15 987.05-19.15 987.05-9.1Q987.05-6.35 987.6-5.25L987.6-5.25Q988.2-4.15 990.2-4.15 992.2-4.15 995.5-4.95L995.5-4.95 996.35-0.45Q992.55 0.55 989.85 0.55L989.85 0.55Q985.05 0.55 983.48-1.6 981.9-3.75 981.9-9.1L981.9-9.1Z" opacity="1" transform="matrix(1,0,0,1,0,0)" fill="#000000" class="slogan-text-1" data-fill-palette-color="secondary" id="text-1"></path></svg></g></svg></g></svg></g></svg></g><g><svg viewBox="0 0 246.28689781710662 246.28689781710662" height="246.28689781710662" width="246.28689781710662"><g><svg></svg></g><g id="icon-0"><svg viewBox="0 0 246.28689781710662 246.28689781710662" height="246.28689781710662" width="246.28689781710662"><g><path d="M0 123.143c0-68.01 55.133-123.143 123.143-123.143 68.01 0 123.143 55.133 123.144 123.143 0 68.01-55.133 123.143-123.144 123.144-68.01 0-123.143-55.133-123.143-123.144zM123.143 237.864c63.359 0 114.721-51.362 114.721-114.721 0-63.359-51.362-114.721-114.721-114.721-63.359 0-114.721 51.362-114.721 114.721 0 63.359 51.362 114.721 114.721 114.721z" data-fill-palette-color="accent" fill="#000000" stroke="transparent"></path></g><g transform="matrix(1,0,0,1,55.347602140983284,63.71080623218205)"><svg viewBox="0 0 135.59169353514005 118.86528535274252" height="118.86528535274252" width="135.59169353514005"><g><svg xmlns="http://www.w3.org/2000/svg" xmlns:xlink="http://www.w3.org/1999/xlink" version="1.1" x="0" y="0" viewBox="0.459544856702537 6.595953348666914 99.0804809634584 86.8580466513331" enable-background="new 0 0 100 100" xml:space="preserve" height="118.86528535274252" width="135.59169353514005" class="icon-cg-0" data-fill-palette-color="accent" id="cg-0"><g fill="#111111" data-fill-palette-color="accent"><path d="M99.012 87.435C83.825 61.132 68.64 34.83 53.454 8.527 52.607 7.06 51.293 6.522 50 6.604c-1.292-0.081-2.607 0.456-3.454 1.923C31.361 34.83 16.175 61.132 0.988 87.435c-1.515 2.624 0.41 6.019 3.454 6.019 30.372 0 60.743 0 91.115 0C98.602 93.453 100.526 90.059 99.012 87.435zM50 18.547C62.876 40.85 75.753 63.151 88.629 85.453c-25.753 0-51.505 0-77.258 0C24.248 63.151 37.124 40.85 50 18.547z" fill="#000000" data-fill-palette-color="accent"></path><polygon points="62.138,73 49,73 38,82 66,82  " fill="#000000" data-fill-palette-color="accent"></polygon><path d="M32 82l16-9v-7c0-4.418 3.11-8 7.432-8C59.754 58 63 61.582 63 66v7l6 9V64l0 0c-0.002-10-8-20-18.948-20C39 44 31.899 54 32 64" fill="#000000" data-fill-palette-color="accent"></path></g></svg></g></svg></g></svg></g></svg></g></svg></g><defs></defs></svg><rect width="395.52" height="142.01905084823875" fill="none" stroke="none" visibility="hidden"></rect></g></svg></g></svg>