<svg xmlns="http://www.w3.org/2000/svg" version="1.1" xmlns:xlink="http://www.w3.org/1999/xlink" xmlns:svgjs="http://svgjs.dev/svgjs" width="128" height="128" viewBox="0 0 128 128"><g transform="matrix(0.8046875,0,0,0.8046875,12.760752631578946,18.374185155138953)"><svg viewBox="0 0 95 84" data-background-color="#ffffff" preserveAspectRatio="xMidYMid meet" height="113" width="128" xmlns="http://www.w3.org/2000/svg" xmlns:xlink="http://www.w3.org/1999/xlink"><g id="tight-bounds" transform="matrix(1,0,0,1,-0.24049999999999727,0.14870360099200752)"><svg viewBox="0 0 95.481 83.702592798016" height="83.702592798016" width="95.481"><g><svg viewBox="0 0 95.481 83.702592798016" height="83.702592798016" width="95.481"><g><svg viewBox="0 0 95.481 83.702592798016" height="83.702592798016" width="95.481"><g id="textblocktransform"><svg viewBox="0 0 95.481 83.702592798016" height="83.702592798016" width="95.481" id="textblock"><g><svg viewBox="0 0 95.481 83.702592798016" height="83.702592798016" width="95.481"><g><svg viewBox="0 0 95.481 83.702592798016" height="83.702592798016" width="95.481"><g><svg xmlns="http://www.w3.org/2000/svg" xmlns:xlink="http://www.w3.org/1999/xlink" version="1.1" x="0" y="0" viewBox="0.459544856702537 6.595953348666914 99.0804809634584 86.8580466513331" enable-background="new 0 0 100 100" xml:space="preserve" height="83.702592798016" width="95.481" class="icon-icon-0" data-fill-palette-color="accent" id="icon-0"><g fill="#111111" data-fill-palette-color="accent"><path d="M99.012 87.435C83.825 61.132 68.64 34.83 53.454 8.527 52.607 7.06 51.293 6.522 50 6.604c-1.292-0.081-2.607 0.456-3.454 1.923C31.361 34.83 16.175 61.132 0.988 87.435c-1.515 2.624 0.41 6.019 3.454 6.019 30.372 0 60.743 0 91.115 0C98.602 93.453 100.526 90.059 99.012 87.435zM50 18.547C62.876 40.85 75.753 63.151 88.629 85.453c-25.753 0-51.505 0-77.258 0C24.248 63.151 37.124 40.85 50 18.547z" fill="#111111" data-fill-palette-color="accent"></path><polygon points="62.138,73 49,73 38,82 66,82  " fill="#111111" data-fill-palette-color="accent"></polygon><path d="M32 82l16-9v-7c0-4.418 3.11-8 7.432-8C59.754 58 63 61.582 63 66v7l6 9V64l0 0c-0.002-10-8-20-18.948-20C39 44 31.899 54 32 64" fill="#111111" data-fill-palette-color="accent"></path></g></svg></g></svg></g></svg></g></svg></g></svg></g></svg></g><defs></defs></svg><rect width="95.481" height="83.702592798016" fill="none" stroke="none" visibility="hidden"></rect></g></svg></g></svg>